<mxfile host="app.diagrams.net" modified="2021-11-11T19:03:38.032Z" agent="5.0 (Windows NT 10.0; Win64; x64) AppleWebKit/537.36 (KHTML, like Gecko) Chrome/95.0.4638.69 Safari/537.36" etag="-O3VnFZhqroH4HKgMbIo" version="15.7.3" type="github">
  <diagram id="vBpyRcGpbiNrpeLYKYq1" name="Page-1">
    <mxGraphModel dx="1422" dy="754" grid="1" gridSize="10" guides="1" tooltips="1" connect="1" arrows="1" fold="1" page="1" pageScale="1" pageWidth="827" pageHeight="1169" math="0" shadow="0">
      <root>
        <mxCell id="0" />
        <mxCell id="1" parent="0" />
        <mxCell id="egLOnkCtrm8G674n_i2L-9" style="edgeStyle=orthogonalEdgeStyle;rounded=0;orthogonalLoop=1;jettySize=auto;html=1;exitX=1;exitY=0.5;exitDx=0;exitDy=0;entryX=0;entryY=0.5;entryDx=0;entryDy=0;fontSize=18;" edge="1" parent="1" source="egLOnkCtrm8G674n_i2L-1" target="egLOnkCtrm8G674n_i2L-2">
          <mxGeometry relative="1" as="geometry" />
        </mxCell>
        <mxCell id="egLOnkCtrm8G674n_i2L-1" value="&lt;font style=&quot;font-size: 18px&quot;&gt;Dator&lt;/font&gt;" style="rounded=0;whiteSpace=wrap;html=1;" vertex="1" parent="1">
          <mxGeometry x="60" y="200" width="110" height="40" as="geometry" />
        </mxCell>
        <mxCell id="egLOnkCtrm8G674n_i2L-10" style="edgeStyle=orthogonalEdgeStyle;rounded=0;orthogonalLoop=1;jettySize=auto;html=1;exitX=1;exitY=0.5;exitDx=0;exitDy=0;fontSize=18;" edge="1" parent="1" source="egLOnkCtrm8G674n_i2L-2" target="egLOnkCtrm8G674n_i2L-4">
          <mxGeometry relative="1" as="geometry" />
        </mxCell>
        <mxCell id="egLOnkCtrm8G674n_i2L-2" value="&lt;font style=&quot;font-size: 18px&quot;&gt;Arduino&lt;/font&gt;" style="rounded=0;whiteSpace=wrap;html=1;" vertex="1" parent="1">
          <mxGeometry x="260" y="200" width="120" height="40" as="geometry" />
        </mxCell>
        <mxCell id="egLOnkCtrm8G674n_i2L-11" style="edgeStyle=orthogonalEdgeStyle;rounded=0;orthogonalLoop=1;jettySize=auto;html=1;exitX=1;exitY=0.5;exitDx=0;exitDy=0;fontSize=18;" edge="1" parent="1" source="egLOnkCtrm8G674n_i2L-4" target="egLOnkCtrm8G674n_i2L-8">
          <mxGeometry relative="1" as="geometry" />
        </mxCell>
        <mxCell id="egLOnkCtrm8G674n_i2L-4" value="Breadboard" style="rounded=0;whiteSpace=wrap;html=1;fontSize=18;" vertex="1" parent="1">
          <mxGeometry x="460" y="200" width="120" height="40" as="geometry" />
        </mxCell>
        <mxCell id="egLOnkCtrm8G674n_i2L-8" value="LCD" style="rounded=0;whiteSpace=wrap;html=1;fontSize=18;" vertex="1" parent="1">
          <mxGeometry x="660" y="200" width="100" height="40" as="geometry" />
        </mxCell>
      </root>
    </mxGraphModel>
  </diagram>
</mxfile>
